<svg width="24" height="24" viewBox="0 0 24 24" fill="none" xmlns="http://www.w3.org/2000/svg">
<path d="M11 3.05499C9.31546 3.24325 7.71833 3.90331 6.39241 4.95923C5.06649 6.01514 4.06566 7.42399 3.50511 9.02361C2.94456 10.6232 2.84708 12.3486 3.22388 14.0012C3.60068 15.6538 4.43644 17.1664 5.63499 18.365C6.83354 19.5635 8.34615 20.3993 9.99874 20.7761C11.6513 21.1529 13.3767 21.0554 14.9763 20.4949C16.576 19.9343 17.9848 18.9335 19.0407 17.6076C20.0966 16.2816 20.7567 14.6845 20.945 13H11V3.05499Z" stroke="#BDBDBD" stroke-width="2" stroke-linecap="round" stroke-linejoin="round"/>
<path d="M20.488 9.00002H15V3.51202C16.2654 3.96095 17.4147 4.68656 18.3641 5.63596C19.3135 6.58537 20.0391 7.73464 20.488 9.00002Z" stroke="#BDBDBD" stroke-width="2" stroke-linecap="round" stroke-linejoin="round"/>
</svg>
